# xmcd
#
# Track frame offsets:
#        150
#        18282
#        54052
#        72437
#        91690
#        126997
#        141862
#        165370
#
# Disc length: 2418 seconds
#
# Revision: 0
# Processed by: cddbd v1.5.1PL2 Copyright (c) Steve Scherf et al.
# Submitted via: ExactAudioCopy v0.95a5
#
DISCID=5d097008
DTITLE=Gazebo - Gazebo
DYEAR=1983
DGENRE=Pop
TTITLE0=Lunatic
TTITLE1=Love In Your Eyes
TTITLE2=London - Paris
TTITLE3=Masterpiece
TTITLE4=I Like Chopin
TTITLE5=Wrap The Rock
TTITLE6=Midnight Cocktail
TTITLE7=Gimmick!
EXTD=
EXTT0=
EXTT1=
EXTT2=
EXTT3=
EXTT4=
EXTT5=
EXTT6=
EXTT7=
PLAYORDER=
